<svg width="1440" height="1000" viewBox="0 0 1440 1000" fill="none" xmlns="http://www.w3.org/2000/svg">
  <rect width="1440" height="1000" fill="#F8F9FA"/>
  <rect width="220" height="1000" fill="white"/>
  <path d="M219.5 0V1000" stroke="#E5E7EB"/>
  <text x="16" y="35" font-family="Arial" font-size="16" font-weight="500" fill="#111827">Credit</text>
  <text x="66" y="35" font-family="Arial" font-size="16" font-weight="500" fill="#185FA5">IQ</text>
  <text x="16" y="55" font-family="Arial" font-size="11" fill="#9CA3AF">Credit risk intelligence</text>
  <text x="16" y="103" font-family="Arial" font-size="10" fill="#9CA3AF">OVERVIEW</text>
  <rect x="0" y="146" width="220" height="36" fill="#E6F1FB"/>
  <rect x="0" y="146" width="2" height="36" fill="#185FA5"/>
  <text x="44" y="132" font-family="Arial" font-size="14" fill="#4B5563">Dashboard</text>
  <text x="44" y="168" font-family="Arial" font-size="14" fill="#185FA5">Applications</text>
  <text x="16" y="203" font-family="Arial" font-size="10" fill="#9CA3AF">ANALYSIS</text>
  <text x="44" y="232" font-family="Arial" font-size="14" fill="#4B5563">Analytics</text>
  <text x="44" y="268" font-family="Arial" font-size="14" fill="#4B5563">Simulator</text>
  <text x="44" y="304" font-family="Arial" font-size="14" fill="#4B5563">AI Advisor</text>
  <text x="16" y="337" font-family="Arial" font-size="10" fill="#9CA3AF">TOOLS</text>
  <text x="44" y="368" font-family="Arial" font-size="14" fill="#4B5563">Batch Predict</text>
  <text x="44" y="404" font-family="Arial" font-size="14" fill="#4B5563">Profile</text>
  <text x="244" y="48" font-family="Arial" font-size="24" font-weight="600" fill="#111827">Loan decision report</text>
  <text x="244" y="75" font-family="Arial" font-size="13" fill="#6B7280">Application #1 · 25/06/2026</text>
  <rect x="244" y="104" width="1172" height="112" rx="10" fill="#EAF3DE" stroke="#97C459"/>
  <text x="270" y="170" font-family="Arial" font-size="32" font-weight="600" fill="#3B6D11">✓ Approved</text>
  <rect x="1248" y="136" width="132" height="30" rx="15" fill="#E6F1FB"/>
  <text x="1266" y="156" font-family="Arial" font-size="13" font-weight="600" fill="#185FA5">Both models agree</text>
  <rect x="244" y="240" width="704" height="236" rx="10" fill="white" stroke="#E5E7EB"/>
  <text x="260" y="270" font-family="Arial" font-size="11" font-weight="700" fill="#6B7280">MODEL COMPARISON</text>
  <rect x="260" y="292" width="326" height="152" rx="8" fill="white" stroke="#E5E7EB"/>
  <text x="280" y="322" font-family="Arial" font-size="13" font-weight="600" fill="#111827">LOGISTIC REGRESSION</text>
  <text x="280" y="362" font-family="Arial" font-size="30" font-weight="600" fill="#111827">82%</text>
  <text x="280" y="385" font-family="Arial" font-size="12" fill="#6B7280">Confidence · Approved</text>
  <rect x="280" y="408" width="250" height="8" rx="4" fill="#F3F4F6"/>
  <rect x="280" y="408" width="205" height="8" rx="4" fill="#639922"/>
  <rect x="606" y="292" width="326" height="152" rx="8" fill="#E6F1FB" stroke="#85B7EB"/>
  <text x="626" y="322" font-family="Arial" font-size="13" font-weight="600" fill="#111827">RANDOM FOREST</text>
  <text x="626" y="362" font-family="Arial" font-size="30" font-weight="600" fill="#111827">91%</text>
  <text x="626" y="385" font-family="Arial" font-size="12" fill="#6B7280">Confidence · Primary model</text>
  <rect x="626" y="408" width="250" height="8" rx="4" fill="white"/>
  <rect x="626" y="408" width="228" height="8" rx="4" fill="#639922"/>
  <rect x="244" y="500" width="342" height="296" rx="10" fill="white" stroke="#E5E7EB"/>
  <text x="260" y="530" font-family="Arial" font-size="11" font-weight="700" fill="#6B7280">LOGISTIC REGRESSION EXPLANATION</text>
  <rect x="280" y="570" width="228" height="16" rx="8" fill="#FCEBEB"/>
  <rect x="280" y="612" width="188" height="16" rx="8" fill="#EAF3DE"/>
  <rect x="280" y="654" width="142" height="16" rx="8" fill="#FCEBEB"/>
  <text x="280" y="725" font-family="Arial" font-size="12" fill="#6B7280">Red pushes rejection · Green pushes approval</text>
  <rect x="606" y="500" width="342" height="296" rx="10" fill="white" stroke="#E5E7EB"/>
  <text x="622" y="530" font-family="Arial" font-size="11" font-weight="700" fill="#6B7280">RANDOM FOREST EXPLANATION</text>
  <rect x="642" y="570" width="228" height="16" rx="8" fill="#FCEBEB"/>
  <rect x="642" y="612" width="188" height="16" rx="8" fill="#EAF3DE"/>
  <rect x="642" y="654" width="142" height="16" rx="8" fill="#FCEBEB"/>
  <text x="642" y="725" font-family="Arial" font-size="12" fill="#6B7280">Top SHAP factors ranked by impact</text>
  <rect x="972" y="240" width="444" height="390" rx="10" fill="white" stroke="#E5E7EB"/>
  <text x="992" y="270" font-family="Arial" font-size="11" font-weight="700" fill="#6B7280">APPLICATION SUMMARY</text>
  <text x="992" y="312" font-family="Arial" font-size="13" fill="#6B7280">Loan Amount</text>
  <text x="1320" y="312" text-anchor="end" font-family="Arial" font-size="13" font-weight="600" fill="#111827">₹1,169</text>
  <text x="992" y="348" font-family="Arial" font-size="13" fill="#6B7280">Duration</text>
  <text x="1320" y="348" text-anchor="end" font-family="Arial" font-size="13" font-weight="600" fill="#111827">6 months</text>
  <text x="992" y="384" font-family="Arial" font-size="13" fill="#6B7280">Purpose</text>
  <text x="1320" y="384" text-anchor="end" font-family="Arial" font-size="13" font-weight="600" fill="#111827">Car</text>
  <text x="992" y="420" font-family="Arial" font-size="13" fill="#6B7280">Credit History</text>
  <text x="1320" y="420" text-anchor="end" font-family="Arial" font-size="13" font-weight="600" fill="#111827">Critical account</text>
  <text x="992" y="456" font-family="Arial" font-size="13" fill="#6B7280">Employment</text>
  <text x="1320" y="456" text-anchor="end" font-family="Arial" font-size="13" font-weight="600" fill="#111827">Over 7 years</text>
  <rect x="972" y="654" width="444" height="142" rx="10" fill="white" stroke="#E5E7EB"/>
  <text x="992" y="684" font-family="Arial" font-size="11" font-weight="700" fill="#6B7280">RISK ACTIONS</text>
  <text x="992" y="724" font-family="Arial" font-size="13" fill="#3B6D11">✓ Application meets credit criteria.</text>
  <text x="992" y="752" font-family="Arial" font-size="13" fill="#3B6D11">Keep repayment commitments on time.</text>
</svg>
