<svg width="1440" height="1000" viewBox="0 0 1440 1000" fill="none" xmlns="http://www.w3.org/2000/svg">
  <rect width="1440" height="1000" fill="#F8F9FA"/>
  <rect width="220" height="1000" fill="white"/>
  <path d="M219.5 0V1000" stroke="#E5E7EB"/>
  <text x="16" y="35" font-family="Arial" font-size="16" font-weight="500" fill="#111827">Credit</text>
  <text x="66" y="35" font-family="Arial" font-size="16" font-weight="500" fill="#185FA5">IQ</text>
  <text x="16" y="55" font-family="Arial" font-size="11" fill="#9CA3AF">Credit risk intelligence</text>
  <text x="16" y="103" font-family="Arial" font-size="10" fill="#9CA3AF">OVERVIEW</text>
  <text x="44" y="132" font-family="Arial" font-size="14" fill="#4B5563">Dashboard</text>
  <text x="44" y="168" font-family="Arial" font-size="14" fill="#4B5563">Applications</text>
  <text x="16" y="203" font-family="Arial" font-size="10" fill="#9CA3AF">ANALYSIS</text>
  <text x="44" y="232" font-family="Arial" font-size="14" fill="#4B5563">Analytics</text>
  <rect x="0" y="246" width="220" height="36" fill="#E6F1FB"/>
  <rect x="0" y="246" width="2" height="36" fill="#185FA5"/>
  <text x="44" y="268" font-family="Arial" font-size="14" fill="#185FA5">Simulator</text>
  <text x="44" y="304" font-family="Arial" font-size="14" fill="#4B5563">AI Advisor</text>
  <text x="16" y="337" font-family="Arial" font-size="10" fill="#9CA3AF">TOOLS</text>
  <text x="44" y="368" font-family="Arial" font-size="14" fill="#4B5563">Batch Predict</text>
  <text x="44" y="404" font-family="Arial" font-size="14" fill="#4B5563">Profile</text>
  <rect x="244" y="24" width="454" height="842" rx="10" fill="white" stroke="#E5E7EB"/>
  <text x="260" y="64" font-family="Arial" font-size="24" font-weight="500" fill="#111827">What-if simulator</text>
  <text x="260" y="90" font-family="Arial" font-size="13" fill="#6B7280">Adjust loan parameters and compare approval probability.</text>
  <text x="260" y="132" font-family="Arial" font-size="13" font-weight="600" fill="#111827">Loan Amount</text>
  <text x="680" y="132" text-anchor="end" font-family="Arial" font-size="13" fill="#6B7280">₹3,000</text>
  <rect x="260" y="150" width="420" height="8" rx="4" fill="#E5E7EB"/>
  <rect x="260" y="150" width="72" height="8" rx="4" fill="#185FA5"/>
  <circle cx="332" cy="154" r="8" fill="#185FA5"/>
  <text x="260" y="202" font-family="Arial" font-size="13" font-weight="600" fill="#111827">Loan Duration</text>
  <text x="680" y="202" text-anchor="end" font-family="Arial" font-size="13" fill="#6B7280">12</text>
  <rect x="260" y="220" width="420" height="8" rx="4" fill="#E5E7EB"/>
  <rect x="260" y="220" width="56" height="8" rx="4" fill="#185FA5"/>
  <circle cx="316" cy="224" r="8" fill="#185FA5"/>
  <text x="260" y="272" font-family="Arial" font-size="13" font-weight="600" fill="#111827">Applicant Age</text>
  <text x="680" y="272" text-anchor="end" font-family="Arial" font-size="13" fill="#6B7280">35</text>
  <rect x="260" y="290" width="420" height="8" rx="4" fill="#E5E7EB"/>
  <rect x="260" y="290" width="124" height="8" rx="4" fill="#185FA5"/>
  <circle cx="384" cy="294" r="8" fill="#185FA5"/>
  <text x="260" y="342" font-family="Arial" font-size="13" font-weight="600" fill="#111827">Installment Rate</text>
  <text x="680" y="342" text-anchor="end" font-family="Arial" font-size="13" fill="#6B7280">2</text>
  <rect x="260" y="360" width="420" height="8" rx="4" fill="#E5E7EB"/>
  <rect x="260" y="360" width="140" height="8" rx="4" fill="#185FA5"/>
  <circle cx="400" cy="364" r="8" fill="#185FA5"/>
  <text x="260" y="410" font-family="Arial" font-size="13" font-weight="600" fill="#111827">Account Balance</text>
  <rect x="260" y="424" width="420" height="36" rx="7" fill="white" stroke="#D1D5DB"/>
  <text x="276" y="447" font-family="Arial" font-size="13" fill="#111827">No account</text>
  <text x="260" y="494" font-family="Arial" font-size="13" font-weight="600" fill="#111827">Credit History</text>
  <rect x="260" y="508" width="420" height="36" rx="7" fill="white" stroke="#D1D5DB"/>
  <text x="276" y="531" font-family="Arial" font-size="13" fill="#111827">Existing paid</text>
  <text x="260" y="578" font-family="Arial" font-size="13" font-weight="600" fill="#111827">Employment Duration</text>
  <rect x="260" y="592" width="420" height="36" rx="7" fill="white" stroke="#D1D5DB"/>
  <text x="276" y="615" font-family="Arial" font-size="13" fill="#111827">1-4 years</text>
  <rect x="260" y="814" width="204" height="36" rx="7" fill="#185FA5"/>
  <text x="362" y="837" text-anchor="middle" font-family="Arial" font-size="13" font-weight="600" fill="white">Predict now</text>
  <rect x="476" y="814" width="204" height="36" rx="7" fill="white" stroke="#E5E7EB"/>
  <text x="578" y="837" text-anchor="middle" font-family="Arial" font-size="13" fill="#111827">Reset</text>
  <rect x="722" y="24" width="694" height="180" rx="10" fill="white" stroke="#E5E7EB"/>
  <circle cx="1069" cy="82" r="40" fill="#EAF3DE"/>
  <text x="1069" y="94" text-anchor="middle" font-family="Arial" font-size="34" font-weight="700" fill="#3B6D11">✓</text>
  <text x="1069" y="155" text-anchor="middle" font-family="Arial" font-size="22" font-weight="500" fill="#111827">Approved</text>
  <text x="1069" y="180" text-anchor="middle" font-family="Arial" font-size="13" fill="#6B7280">Random Forest confidence 97%</text>
  <rect x="722" y="228" width="338" height="78" rx="10" fill="white" stroke="#E5E7EB"/>
  <text x="740" y="258" font-family="Arial" font-size="13" font-weight="600" fill="#111827">Logistic Regression</text>
  <rect x="740" y="278" width="300" height="8" rx="4" fill="#F3F4F6"/>
  <rect x="740" y="278" width="273" height="8" rx="4" fill="#185FA5"/>
  <text x="740" y="296" font-family="Arial" font-size="11" fill="#6B7280">Approval probability 91%</text>
  <rect x="1078" y="228" width="338" height="78" rx="10" fill="#E6F1FB" stroke="#85B7EB"/>
  <text x="1096" y="258" font-family="Arial" font-size="13" font-weight="600" fill="#111827">Random Forest</text>
  <rect x="1096" y="278" width="300" height="8" rx="4" fill="white"/>
  <rect x="1096" y="278" width="291" height="8" rx="4" fill="#185FA5"/>
  <text x="1096" y="296" font-family="Arial" font-size="11" fill="#6B7280">Approval probability 97%</text>
  <rect x="722" y="330" width="694" height="366" rx="10" fill="white" stroke="#E5E7EB"/>
  <text x="740" y="370" font-family="Arial" font-size="13" font-weight="600" fill="#111827">Sensitivity chart</text>
  <rect x="1216" y="348" width="182" height="36" rx="8" fill="white" stroke="#E5E7EB"/>
  <text x="1234" y="371" font-family="Arial" font-size="13" fill="#111827">Vary: Loan Amount</text>
  <path d="M780 622 L850 592 L920 560 L990 520 L1060 478 L1130 446 L1200 418 L1320 392" stroke="#185FA5" stroke-width="4" fill="none"/>
  <path d="M780 646 L850 610 L920 570 L990 526 L1060 486 L1130 454 L1200 430 L1320 410" stroke="#BA7517" stroke-width="4" fill="none"/>
  <path d="M780 650H1340M780 590H1340M780 530H1340M780 470H1340M780 410H1340" stroke="#E5E7EB"/>
  <path d="M780 410V650H1340" stroke="#9CA3AF"/>
  <text x="850" y="674" font-family="Arial" font-size="11" fill="#6B7280">2k</text>
  <text x="990" y="674" font-family="Arial" font-size="11" fill="#6B7280">5k</text>
  <text x="1130" y="674" font-family="Arial" font-size="11" fill="#6B7280">10k</text>
  <text x="1280" y="674" font-family="Arial" font-size="11" fill="#6B7280">18k</text>
  <rect x="722" y="720" width="694" height="146" rx="10" fill="white" stroke="#E5E7EB"/>
  <text x="740" y="750" font-family="Arial" font-size="11" font-weight="700" fill="#6B7280">MAIN FACTORS IN THIS PREDICTION</text>
  <rect x="740" y="778" width="200" height="62" rx="8" fill="#F3F4F6"/>
  <text x="758" y="806" font-family="Arial" font-size="13" font-weight="600" fill="#111827">Account Balance</text>
  <text x="758" y="826" font-family="Arial" font-size="12" fill="#3B6D11">positive impact</text>
  <rect x="960" y="778" width="200" height="62" rx="8" fill="#F3F4F6"/>
  <text x="978" y="806" font-family="Arial" font-size="13" font-weight="600" fill="#111827">Credit History</text>
  <text x="978" y="826" font-family="Arial" font-size="12" fill="#3B6D11">positive impact</text>
  <rect x="1180" y="778" width="200" height="62" rx="8" fill="#F3F4F6"/>
  <text x="1198" y="806" font-family="Arial" font-size="13" font-weight="600" fill="#111827">Loan Duration</text>
  <text x="1198" y="826" font-family="Arial" font-size="12" fill="#A32D2D">negative impact</text>
</svg>
